<mxfile host="app.diagrams.net" modified="2023-05-07T11:23:28.807Z" agent="Mozilla/5.0 (Windows NT 10.0; Win64; x64) AppleWebKit/537.36 (KHTML, like Gecko) Chrome/113.0.0.0 Safari/537.36" etag="515j4Xf2YxSIgZuF1I2R" version="21.2.9" type="device">
  <diagram name="Страница 1" id="hKR1b_W0vJT78m-j09uT">
    <mxGraphModel dx="1843" dy="830" grid="1" gridSize="10" guides="1" tooltips="1" connect="1" arrows="1" fold="1" page="1" pageScale="1" pageWidth="1654" pageHeight="2336" math="0" shadow="0">
      <root>
        <mxCell id="0" />
        <mxCell id="1" parent="0" />
        <mxCell id="FbXLROSCPdwHyg9vS8EN-12" value="" style="endArrow=none;html=1;rounded=0;entryX=0.597;entryY=-0.089;entryDx=0;entryDy=0;entryPerimeter=0;exitX=0.341;exitY=1.049;exitDx=0;exitDy=0;exitPerimeter=0;" parent="1" source="FbXLROSCPdwHyg9vS8EN-45" target="FbXLROSCPdwHyg9vS8EN-46" edge="1">
          <mxGeometry relative="1" as="geometry">
            <mxPoint x="540" y="668.4799999999999" as="sourcePoint" />
            <mxPoint x="590" y="668.9" as="targetPoint" />
          </mxGeometry>
        </mxCell>
        <mxCell id="FbXLROSCPdwHyg9vS8EN-15" value="дата заказа" style="ellipse;whiteSpace=wrap;html=1;" parent="1" vertex="1">
          <mxGeometry x="442.5" y="776.4" width="110" height="55" as="geometry" />
        </mxCell>
        <mxCell id="FbXLROSCPdwHyg9vS8EN-44" value="&lt;span style=&quot;border-bottom: 1px dotted&quot;&gt;Код покупателя&lt;/span&gt;" style="ellipse;whiteSpace=wrap;html=1;align=center;" parent="1" vertex="1">
          <mxGeometry x="260" y="653.9" width="100" height="40" as="geometry" />
        </mxCell>
        <mxCell id="FbXLROSCPdwHyg9vS8EN-45" value="Покупатель" style="whiteSpace=wrap;html=1;align=center;" parent="1" vertex="1">
          <mxGeometry x="440" y="638.9" width="100" height="40" as="geometry" />
        </mxCell>
        <mxCell id="FbXLROSCPdwHyg9vS8EN-46" value="Адрес" style="ellipse;whiteSpace=wrap;html=1;align=center;" parent="1" vertex="1">
          <mxGeometry x="320" y="763.9" width="100" height="40" as="geometry" />
        </mxCell>
        <mxCell id="FbXLROSCPdwHyg9vS8EN-47" value="Название" style="ellipse;whiteSpace=wrap;html=1;align=center;" parent="1" vertex="1">
          <mxGeometry x="270" y="721.4" width="100" height="40" as="geometry" />
        </mxCell>
        <mxCell id="FbXLROSCPdwHyg9vS8EN-48" value="" style="endArrow=none;html=1;rounded=0;exitX=0.5;exitY=0;exitDx=0;exitDy=0;entryX=0;entryY=0.5;entryDx=0;entryDy=0;" parent="1" source="FbXLROSCPdwHyg9vS8EN-15" target="FbXLROSCPdwHyg9vS8EN-140" edge="1">
          <mxGeometry relative="1" as="geometry">
            <mxPoint x="520" y="748.9" as="sourcePoint" />
            <mxPoint x="630" y="703.9" as="targetPoint" />
          </mxGeometry>
        </mxCell>
        <mxCell id="FbXLROSCPdwHyg9vS8EN-49" value="" style="endArrow=none;html=1;rounded=0;exitX=0.999;exitY=0.78;exitDx=0;exitDy=0;exitPerimeter=0;entryX=0;entryY=0.25;entryDx=0;entryDy=0;" parent="1" source="FbXLROSCPdwHyg9vS8EN-44" target="FbXLROSCPdwHyg9vS8EN-45" edge="1">
          <mxGeometry relative="1" as="geometry">
            <mxPoint x="470" y="578.9" as="sourcePoint" />
            <mxPoint x="630" y="578.9" as="targetPoint" />
          </mxGeometry>
        </mxCell>
        <mxCell id="FbXLROSCPdwHyg9vS8EN-50" value="" style="endArrow=none;html=1;rounded=0;entryX=0;entryY=0.5;entryDx=0;entryDy=0;exitX=1;exitY=0.5;exitDx=0;exitDy=0;" parent="1" source="FbXLROSCPdwHyg9vS8EN-47" target="FbXLROSCPdwHyg9vS8EN-45" edge="1">
          <mxGeometry relative="1" as="geometry">
            <mxPoint x="320" y="657.36" as="sourcePoint" />
            <mxPoint x="420" y="656.9" as="targetPoint" />
          </mxGeometry>
        </mxCell>
        <mxCell id="FbXLROSCPdwHyg9vS8EN-54" value="Сотрудник" style="whiteSpace=wrap;html=1;align=center;" parent="1" vertex="1">
          <mxGeometry x="747" y="533.9" width="100" height="40" as="geometry" />
        </mxCell>
        <mxCell id="FbXLROSCPdwHyg9vS8EN-55" value="Код сотрудника" style="ellipse;whiteSpace=wrap;html=1;align=center;fontStyle=4;" parent="1" vertex="1">
          <mxGeometry x="775" y="418.9" width="110" height="40" as="geometry" />
        </mxCell>
        <mxCell id="FbXLROSCPdwHyg9vS8EN-57" value="Название" style="ellipse;whiteSpace=wrap;html=1;align=center;" parent="1" vertex="1">
          <mxGeometry x="1050" y="15" width="100" height="40" as="geometry" />
        </mxCell>
        <mxCell id="FbXLROSCPdwHyg9vS8EN-58" value="Единица измерения" style="ellipse;whiteSpace=wrap;html=1;align=center;" parent="1" vertex="1">
          <mxGeometry x="1160" y="115" width="100" height="40" as="geometry" />
        </mxCell>
        <mxCell id="FbXLROSCPdwHyg9vS8EN-59" value="Табельный номер" style="ellipse;whiteSpace=wrap;html=1;align=center;" parent="1" vertex="1">
          <mxGeometry x="890" y="533.9" width="110" height="50" as="geometry" />
        </mxCell>
        <mxCell id="FbXLROSCPdwHyg9vS8EN-60" value="Паспортные данные" style="ellipse;whiteSpace=wrap;html=1;align=center;" parent="1" vertex="1">
          <mxGeometry x="675" y="403.9" width="100" height="50" as="geometry" />
        </mxCell>
        <mxCell id="FbXLROSCPdwHyg9vS8EN-61" value="Должность" style="ellipse;whiteSpace=wrap;html=1;align=center;" parent="1" vertex="1">
          <mxGeometry x="610" y="448.9" width="100" height="40" as="geometry" />
        </mxCell>
        <mxCell id="FbXLROSCPdwHyg9vS8EN-64" value="" style="endArrow=none;html=1;rounded=0;entryX=0.25;entryY=0;entryDx=0;entryDy=0;exitX=1;exitY=1;exitDx=0;exitDy=0;" parent="1" source="FbXLROSCPdwHyg9vS8EN-60" target="FbXLROSCPdwHyg9vS8EN-54" edge="1">
          <mxGeometry relative="1" as="geometry">
            <mxPoint x="750" y="468.9" as="sourcePoint" />
            <mxPoint x="760" y="798.9" as="targetPoint" />
          </mxGeometry>
        </mxCell>
        <mxCell id="FbXLROSCPdwHyg9vS8EN-66" value="" style="endArrow=none;html=1;rounded=0;entryX=0;entryY=0.5;entryDx=0;entryDy=0;exitX=1;exitY=0.75;exitDx=0;exitDy=0;" parent="1" source="FbXLROSCPdwHyg9vS8EN-54" target="FbXLROSCPdwHyg9vS8EN-59" edge="1">
          <mxGeometry relative="1" as="geometry">
            <mxPoint x="800" y="488.9" as="sourcePoint" />
            <mxPoint x="960" y="488.9" as="targetPoint" />
          </mxGeometry>
        </mxCell>
        <mxCell id="FbXLROSCPdwHyg9vS8EN-67" value="" style="endArrow=none;html=1;rounded=0;entryX=0;entryY=0.5;entryDx=0;entryDy=0;exitX=1;exitY=0.5;exitDx=0;exitDy=0;" parent="1" source="FbXLROSCPdwHyg9vS8EN-61" target="FbXLROSCPdwHyg9vS8EN-54" edge="1">
          <mxGeometry relative="1" as="geometry">
            <mxPoint x="640" y="538.9" as="sourcePoint" />
            <mxPoint x="800" y="538.9" as="targetPoint" />
          </mxGeometry>
        </mxCell>
        <mxCell id="FbXLROSCPdwHyg9vS8EN-68" value="" style="endArrow=none;html=1;rounded=0;entryX=0.5;entryY=1;entryDx=0;entryDy=0;exitX=0.5;exitY=0;exitDx=0;exitDy=0;" parent="1" source="FbXLROSCPdwHyg9vS8EN-54" target="FbXLROSCPdwHyg9vS8EN-55" edge="1">
          <mxGeometry relative="1" as="geometry">
            <mxPoint x="780" y="488.9" as="sourcePoint" />
            <mxPoint x="940" y="478.9" as="targetPoint" />
          </mxGeometry>
        </mxCell>
        <mxCell id="FbXLROSCPdwHyg9vS8EN-70" value="Производитель" style="whiteSpace=wrap;html=1;align=center;" parent="1" vertex="1">
          <mxGeometry x="750" y="105" width="100" height="40" as="geometry" />
        </mxCell>
        <mxCell id="FbXLROSCPdwHyg9vS8EN-72" value="Код товара" style="ellipse;whiteSpace=wrap;html=1;align=center;fontStyle=4;" parent="1" vertex="1">
          <mxGeometry x="1150.45" y="25" width="100" height="40" as="geometry" />
        </mxCell>
        <mxCell id="FbXLROSCPdwHyg9vS8EN-74" value="Стоимость единицы" style="ellipse;whiteSpace=wrap;html=1;align=center;" parent="1" vertex="1">
          <mxGeometry x="730" y="200.00000000000003" width="110" height="45" as="geometry" />
        </mxCell>
        <mxCell id="FbXLROSCPdwHyg9vS8EN-77" value="Количество в поставке" style="ellipse;whiteSpace=wrap;html=1;align=center;" parent="1" vertex="1">
          <mxGeometry x="825" y="180.04" width="100" height="40" as="geometry" />
        </mxCell>
        <mxCell id="FbXLROSCPdwHyg9vS8EN-79" value="" style="endArrow=none;html=1;rounded=0;exitX=0;exitY=0.25;exitDx=0;exitDy=0;entryX=1;entryY=0.5;entryDx=0;entryDy=0;" parent="1" source="r5WIAvBTR6VUpxrE6MZp-40" target="FbXLROSCPdwHyg9vS8EN-77" edge="1">
          <mxGeometry relative="1" as="geometry">
            <mxPoint x="609.5" y="382.5" as="sourcePoint" />
            <mxPoint x="559.5" y="380" as="targetPoint" />
          </mxGeometry>
        </mxCell>
        <mxCell id="FbXLROSCPdwHyg9vS8EN-83" value="" style="endArrow=none;html=1;rounded=0;exitX=1;exitY=0;exitDx=0;exitDy=0;entryX=0;entryY=1;entryDx=0;entryDy=0;" parent="1" source="r5WIAvBTR6VUpxrE6MZp-49" target="FbXLROSCPdwHyg9vS8EN-72" edge="1">
          <mxGeometry relative="1" as="geometry">
            <mxPoint x="1080" y="150" as="sourcePoint" />
            <mxPoint x="1180" y="135" as="targetPoint" />
          </mxGeometry>
        </mxCell>
        <mxCell id="FbXLROSCPdwHyg9vS8EN-85" value="" style="endArrow=none;html=1;rounded=0;entryX=0.302;entryY=0.996;entryDx=0;entryDy=0;entryPerimeter=0;exitX=0.75;exitY=0;exitDx=0;exitDy=0;" parent="1" source="r5WIAvBTR6VUpxrE6MZp-49" target="FbXLROSCPdwHyg9vS8EN-57" edge="1">
          <mxGeometry relative="1" as="geometry">
            <mxPoint x="1050" y="150" as="sourcePoint" />
            <mxPoint x="1200" y="155" as="targetPoint" />
          </mxGeometry>
        </mxCell>
        <mxCell id="FbXLROSCPdwHyg9vS8EN-99" value="Компания поставщик" style="whiteSpace=wrap;html=1;align=center;" parent="1" vertex="1">
          <mxGeometry x="1133.9300000000003" y="518.9" width="100" height="40" as="geometry" />
        </mxCell>
        <mxCell id="FbXLROSCPdwHyg9vS8EN-101" value="Адрес" style="ellipse;whiteSpace=wrap;html=1;align=center;" parent="1" vertex="1">
          <mxGeometry x="1221.7900000000002" y="583.9" width="100" height="40" as="geometry" />
        </mxCell>
        <mxCell id="FbXLROSCPdwHyg9vS8EN-102" value="Номер счета" style="ellipse;whiteSpace=wrap;html=1;align=center;" parent="1" vertex="1">
          <mxGeometry x="1301.7900000000002" y="498.9" width="100" height="40" as="geometry" />
        </mxCell>
        <mxCell id="FbXLROSCPdwHyg9vS8EN-103" value="Название" style="ellipse;whiteSpace=wrap;html=1;align=center;" parent="1" vertex="1">
          <mxGeometry x="1291.7900000000002" y="543.9" width="100" height="40" as="geometry" />
        </mxCell>
        <mxCell id="FbXLROSCPdwHyg9vS8EN-109" value="" style="endArrow=none;html=1;rounded=0;entryX=0;entryY=0;entryDx=0;entryDy=0;exitX=0.75;exitY=1;exitDx=0;exitDy=0;" parent="1" source="FbXLROSCPdwHyg9vS8EN-99" target="FbXLROSCPdwHyg9vS8EN-101" edge="1">
          <mxGeometry relative="1" as="geometry">
            <mxPoint x="966.87" y="623.9" as="sourcePoint" />
            <mxPoint x="1126.8700000000001" y="623.9" as="targetPoint" />
          </mxGeometry>
        </mxCell>
        <mxCell id="FbXLROSCPdwHyg9vS8EN-110" value="" style="endArrow=none;html=1;rounded=0;entryX=0;entryY=0.5;entryDx=0;entryDy=0;exitX=1;exitY=0.25;exitDx=0;exitDy=0;" parent="1" source="FbXLROSCPdwHyg9vS8EN-99" target="FbXLROSCPdwHyg9vS8EN-102" edge="1">
          <mxGeometry relative="1" as="geometry">
            <mxPoint x="1226.8700000000001" y="458.9" as="sourcePoint" />
            <mxPoint x="1276.8700000000001" y="428.9" as="targetPoint" />
          </mxGeometry>
        </mxCell>
        <mxCell id="FbXLROSCPdwHyg9vS8EN-112" value="" style="endArrow=none;html=1;rounded=0;entryX=0;entryY=0;entryDx=0;entryDy=0;exitX=1;exitY=1;exitDx=0;exitDy=0;" parent="1" source="FbXLROSCPdwHyg9vS8EN-99" target="FbXLROSCPdwHyg9vS8EN-103" edge="1">
          <mxGeometry relative="1" as="geometry">
            <mxPoint x="1246.8700000000001" y="473.9" as="sourcePoint" />
            <mxPoint x="1296.8700000000001" y="448.9" as="targetPoint" />
          </mxGeometry>
        </mxCell>
        <mxCell id="FbXLROSCPdwHyg9vS8EN-126" value="База" style="whiteSpace=wrap;html=1;align=center;" parent="1" vertex="1">
          <mxGeometry x="980" y="631.84" width="100" height="40" as="geometry" />
        </mxCell>
        <mxCell id="FbXLROSCPdwHyg9vS8EN-128" value="Адрес" style="ellipse;whiteSpace=wrap;html=1;align=center;" parent="1" vertex="1">
          <mxGeometry x="1132.86" y="676.84" width="100" height="40" as="geometry" />
        </mxCell>
        <mxCell id="FbXLROSCPdwHyg9vS8EN-130" value="" style="endArrow=none;html=1;rounded=0;entryX=0.5;entryY=0;entryDx=0;entryDy=0;exitX=1;exitY=0.75;exitDx=0;exitDy=0;" parent="1" source="FbXLROSCPdwHyg9vS8EN-126" target="FbXLROSCPdwHyg9vS8EN-128" edge="1">
          <mxGeometry relative="1" as="geometry">
            <mxPoint x="1000" y="711.84" as="sourcePoint" />
            <mxPoint x="1160" y="711.84" as="targetPoint" />
          </mxGeometry>
        </mxCell>
        <mxCell id="FbXLROSCPdwHyg9vS8EN-140" value="Заказ" style="whiteSpace=wrap;html=1;align=center;" parent="1" vertex="1">
          <mxGeometry x="625" y="681.4" width="100" height="40" as="geometry" />
        </mxCell>
        <mxCell id="FbXLROSCPdwHyg9vS8EN-159" value="Статус оплаты" style="ellipse;whiteSpace=wrap;html=1;align=center;" parent="1" vertex="1">
          <mxGeometry x="675" y="783.9" width="100" height="40" as="geometry" />
        </mxCell>
        <mxCell id="FbXLROSCPdwHyg9vS8EN-160" value="Условия доставки" style="ellipse;whiteSpace=wrap;html=1;align=center;" parent="1" vertex="1">
          <mxGeometry x="562.5" y="791.4" width="100" height="40" as="geometry" />
        </mxCell>
        <mxCell id="FbXLROSCPdwHyg9vS8EN-165" value="" style="endArrow=none;html=1;rounded=0;entryX=0;entryY=0.5;entryDx=0;entryDy=0;exitX=1;exitY=0.25;exitDx=0;exitDy=0;" parent="1" source="r5WIAvBTR6VUpxrE6MZp-49" target="FbXLROSCPdwHyg9vS8EN-58" edge="1">
          <mxGeometry relative="1" as="geometry">
            <mxPoint x="1070" y="177.5" as="sourcePoint" />
            <mxPoint x="870" y="375" as="targetPoint" />
          </mxGeometry>
        </mxCell>
        <mxCell id="FbXLROSCPdwHyg9vS8EN-167" value="Количество товара" style="ellipse;whiteSpace=wrap;html=1;align=center;" parent="1" vertex="1">
          <mxGeometry x="1070" y="714.34" width="100" height="40" as="geometry" />
        </mxCell>
        <mxCell id="FbXLROSCPdwHyg9vS8EN-169" value="" style="endArrow=none;html=1;rounded=0;entryX=0.25;entryY=1;entryDx=0;entryDy=0;exitX=0.5;exitY=0;exitDx=0;exitDy=0;" parent="1" source="FbXLROSCPdwHyg9vS8EN-167" target="FbXLROSCPdwHyg9vS8EN-126" edge="1">
          <mxGeometry relative="1" as="geometry">
            <mxPoint x="800" y="511.84000000000003" as="sourcePoint" />
            <mxPoint x="960" y="511.84000000000003" as="targetPoint" />
          </mxGeometry>
        </mxCell>
        <mxCell id="FbXLROSCPdwHyg9vS8EN-177" value="Категория товара" style="ellipse;whiteSpace=wrap;html=1;align=center;" parent="1" vertex="1">
          <mxGeometry x="960" y="55" width="110" height="40" as="geometry" />
        </mxCell>
        <mxCell id="FbXLROSCPdwHyg9vS8EN-178" value="Срок годности" style="ellipse;whiteSpace=wrap;html=1;align=center;" parent="1" vertex="1">
          <mxGeometry x="632.5" y="225.04" width="100" height="40" as="geometry" />
        </mxCell>
        <mxCell id="FbXLROSCPdwHyg9vS8EN-180" value="" style="endArrow=none;html=1;rounded=0;exitX=0.5;exitY=1;exitDx=0;exitDy=0;entryX=0.5;entryY=0;entryDx=0;entryDy=0;" parent="1" source="FbXLROSCPdwHyg9vS8EN-177" target="r5WIAvBTR6VUpxrE6MZp-49" edge="1">
          <mxGeometry relative="1" as="geometry">
            <mxPoint x="710" y="215" as="sourcePoint" />
            <mxPoint x="1020" y="150" as="targetPoint" />
          </mxGeometry>
        </mxCell>
        <mxCell id="FbXLROSCPdwHyg9vS8EN-181" value="" style="endArrow=none;html=1;rounded=0;exitX=1;exitY=1;exitDx=0;exitDy=0;entryX=0;entryY=0.75;entryDx=0;entryDy=0;" parent="1" source="FbXLROSCPdwHyg9vS8EN-74" target="r5WIAvBTR6VUpxrE6MZp-40" edge="1">
          <mxGeometry relative="1" as="geometry">
            <mxPoint x="509.5" y="275" as="sourcePoint" />
            <mxPoint x="640.75" y="400" as="targetPoint" />
          </mxGeometry>
        </mxCell>
        <mxCell id="FbXLROSCPdwHyg9vS8EN-182" value="Адрес" style="ellipse;whiteSpace=wrap;html=1;align=center;" parent="1" vertex="1">
          <mxGeometry x="625" y="75" width="100" height="40" as="geometry" />
        </mxCell>
        <mxCell id="FbXLROSCPdwHyg9vS8EN-185" value="Номер счета" style="ellipse;whiteSpace=wrap;html=1;align=center;" parent="1" vertex="1">
          <mxGeometry x="590" y="130" width="100" height="40" as="geometry" />
        </mxCell>
        <mxCell id="FbXLROSCPdwHyg9vS8EN-186" value="Название" style="ellipse;whiteSpace=wrap;html=1;align=center;" parent="1" vertex="1">
          <mxGeometry x="850" y="35" width="100" height="40" as="geometry" />
        </mxCell>
        <mxCell id="FbXLROSCPdwHyg9vS8EN-188" value="" style="endArrow=none;html=1;rounded=0;entryX=0;entryY=0.75;entryDx=0;entryDy=0;exitX=0.964;exitY=0.212;exitDx=0;exitDy=0;exitPerimeter=0;" parent="1" source="FbXLROSCPdwHyg9vS8EN-185" target="FbXLROSCPdwHyg9vS8EN-70" edge="1">
          <mxGeometry relative="1" as="geometry">
            <mxPoint x="610" y="435" as="sourcePoint" />
            <mxPoint x="770" y="435" as="targetPoint" />
          </mxGeometry>
        </mxCell>
        <mxCell id="FbXLROSCPdwHyg9vS8EN-190" value="" style="endArrow=none;html=1;rounded=0;entryX=0.263;entryY=0.945;entryDx=0;entryDy=0;exitX=1;exitY=0.5;exitDx=0;exitDy=0;entryPerimeter=0;" parent="1" source="FbXLROSCPdwHyg9vS8EN-70" target="FbXLROSCPdwHyg9vS8EN-186" edge="1">
          <mxGeometry relative="1" as="geometry">
            <mxPoint x="746" y="203" as="sourcePoint" />
            <mxPoint x="795" y="165" as="targetPoint" />
          </mxGeometry>
        </mxCell>
        <mxCell id="FbXLROSCPdwHyg9vS8EN-192" value="" style="endArrow=none;html=1;rounded=0;entryX=1;entryY=0.5;entryDx=0;entryDy=0;exitX=0;exitY=0;exitDx=0;exitDy=0;" parent="1" source="FbXLROSCPdwHyg9vS8EN-70" target="FbXLROSCPdwHyg9vS8EN-182" edge="1">
          <mxGeometry relative="1" as="geometry">
            <mxPoint x="756" y="213" as="sourcePoint" />
            <mxPoint x="805" y="175" as="targetPoint" />
          </mxGeometry>
        </mxCell>
        <mxCell id="FbXLROSCPdwHyg9vS8EN-212" value="" style="endArrow=none;html=1;rounded=0;exitX=0;exitY=1;exitDx=0;exitDy=0;entryX=1;entryY=1;entryDx=0;entryDy=0;" parent="1" source="r5WIAvBTR6VUpxrE6MZp-50" target="FbXLROSCPdwHyg9vS8EN-54" edge="1">
          <mxGeometry relative="1" as="geometry">
            <mxPoint x="890" y="599.9999999999998" as="sourcePoint" />
            <mxPoint x="770" y="590" as="targetPoint" />
          </mxGeometry>
        </mxCell>
        <mxCell id="FbXLROSCPdwHyg9vS8EN-213" value="" style="resizable=0;html=1;whiteSpace=wrap;align=left;verticalAlign=bottom;" parent="FbXLROSCPdwHyg9vS8EN-212" connectable="0" vertex="1">
          <mxGeometry x="-1" relative="1" as="geometry">
            <mxPoint x="-345" as="offset" />
          </mxGeometry>
        </mxCell>
        <mxCell id="fYwef7JBW5ezuKU2hQcU-30" value="1" style="edgeLabel;html=1;align=center;verticalAlign=middle;resizable=0;points=[];" parent="FbXLROSCPdwHyg9vS8EN-212" vertex="1" connectable="0">
          <mxGeometry x="0.8763" y="-3" relative="1" as="geometry">
            <mxPoint as="offset" />
          </mxGeometry>
        </mxCell>
        <mxCell id="fYwef7JBW5ezuKU2hQcU-31" value="М" style="edgeLabel;html=1;align=center;verticalAlign=middle;resizable=0;points=[];" parent="FbXLROSCPdwHyg9vS8EN-212" vertex="1" connectable="0">
          <mxGeometry x="-0.87" y="1" relative="1" as="geometry">
            <mxPoint as="offset" />
          </mxGeometry>
        </mxCell>
        <mxCell id="FbXLROSCPdwHyg9vS8EN-218" value="" style="endArrow=none;html=1;rounded=0;entryX=0.5;entryY=0;entryDx=0;entryDy=0;exitX=0.25;exitY=1;exitDx=0;exitDy=0;" parent="1" source="FbXLROSCPdwHyg9vS8EN-140" target="FbXLROSCPdwHyg9vS8EN-160" edge="1">
          <mxGeometry relative="1" as="geometry">
            <mxPoint x="895" y="508.9" as="sourcePoint" />
            <mxPoint x="1055" y="508.9" as="targetPoint" />
          </mxGeometry>
        </mxCell>
        <mxCell id="FbXLROSCPdwHyg9vS8EN-220" value="" style="endArrow=none;html=1;rounded=0;entryX=0;entryY=0;entryDx=0;entryDy=0;exitX=0.75;exitY=1;exitDx=0;exitDy=0;" parent="1" source="FbXLROSCPdwHyg9vS8EN-140" target="FbXLROSCPdwHyg9vS8EN-159" edge="1">
          <mxGeometry relative="1" as="geometry">
            <mxPoint x="785" y="778.9" as="sourcePoint" />
            <mxPoint x="855" y="788.9" as="targetPoint" />
          </mxGeometry>
        </mxCell>
        <mxCell id="FbXLROSCPdwHyg9vS8EN-222" value="" style="endArrow=none;html=1;rounded=0;entryX=1;entryY=1;entryDx=0;entryDy=0;exitX=0;exitY=0.25;exitDx=0;exitDy=0;" parent="1" source="FbXLROSCPdwHyg9vS8EN-140" target="FbXLROSCPdwHyg9vS8EN-45" edge="1">
          <mxGeometry relative="1" as="geometry">
            <mxPoint x="570" y="696.4" as="sourcePoint" />
            <mxPoint x="745" y="528.9" as="targetPoint" />
          </mxGeometry>
        </mxCell>
        <mxCell id="FbXLROSCPdwHyg9vS8EN-223" value="" style="resizable=0;html=1;whiteSpace=wrap;align=left;verticalAlign=bottom;" parent="FbXLROSCPdwHyg9vS8EN-222" connectable="0" vertex="1">
          <mxGeometry x="-1" relative="1" as="geometry" />
        </mxCell>
        <mxCell id="fYwef7JBW5ezuKU2hQcU-33" value="М" style="edgeLabel;html=1;align=center;verticalAlign=middle;resizable=0;points=[];" parent="FbXLROSCPdwHyg9vS8EN-222" vertex="1" connectable="0">
          <mxGeometry x="-0.4902" y="2" relative="1" as="geometry">
            <mxPoint x="-1" as="offset" />
          </mxGeometry>
        </mxCell>
        <mxCell id="fYwef7JBW5ezuKU2hQcU-36" value="1" style="edgeLabel;html=1;align=center;verticalAlign=middle;resizable=0;points=[];" parent="FbXLROSCPdwHyg9vS8EN-222" vertex="1" connectable="0">
          <mxGeometry x="0.7142" y="-3" relative="1" as="geometry">
            <mxPoint as="offset" />
          </mxGeometry>
        </mxCell>
        <mxCell id="FbXLROSCPdwHyg9vS8EN-256" value="Код производителя" style="ellipse;whiteSpace=wrap;html=1;align=center;fontStyle=4;" parent="1" vertex="1">
          <mxGeometry x="720" y="25" width="130" height="40" as="geometry" />
        </mxCell>
        <mxCell id="FbXLROSCPdwHyg9vS8EN-257" value="" style="endArrow=none;html=1;rounded=0;exitX=0.5;exitY=1;exitDx=0;exitDy=0;entryX=0.5;entryY=0;entryDx=0;entryDy=0;" parent="1" source="FbXLROSCPdwHyg9vS8EN-256" target="FbXLROSCPdwHyg9vS8EN-70" edge="1">
          <mxGeometry relative="1" as="geometry">
            <mxPoint x="470" y="535" as="sourcePoint" />
            <mxPoint x="630" y="535" as="targetPoint" />
          </mxGeometry>
        </mxCell>
        <mxCell id="K6yEJlMgc-PRcoqoKb7_-6" value="" style="endArrow=none;html=1;rounded=0;exitX=0.75;exitY=0;exitDx=0;exitDy=0;entryX=0.404;entryY=1.02;entryDx=0;entryDy=0;entryPerimeter=0;" parent="1" source="FbXLROSCPdwHyg9vS8EN-140" target="FbXLROSCPdwHyg9vS8EN-54" edge="1">
          <mxGeometry relative="1" as="geometry">
            <mxPoint x="650" y="696.4" as="sourcePoint" />
            <mxPoint x="1010" y="728.9" as="targetPoint" />
          </mxGeometry>
        </mxCell>
        <mxCell id="fYwef7JBW5ezuKU2hQcU-37" value="М" style="edgeLabel;html=1;align=center;verticalAlign=middle;resizable=0;points=[];" parent="K6yEJlMgc-PRcoqoKb7_-6" vertex="1" connectable="0">
          <mxGeometry x="-0.8277" y="1" relative="1" as="geometry">
            <mxPoint as="offset" />
          </mxGeometry>
        </mxCell>
        <mxCell id="fYwef7JBW5ezuKU2hQcU-40" value="1" style="edgeLabel;html=1;align=center;verticalAlign=middle;resizable=0;points=[];" parent="K6yEJlMgc-PRcoqoKb7_-6" vertex="1" connectable="0">
          <mxGeometry x="0.6527" y="1" relative="1" as="geometry">
            <mxPoint as="offset" />
          </mxGeometry>
        </mxCell>
        <mxCell id="r5WIAvBTR6VUpxrE6MZp-9" value="" style="endArrow=none;html=1;rounded=0;entryX=0.25;entryY=1;entryDx=0;entryDy=0;exitX=0.75;exitY=0;exitDx=0;exitDy=0;" parent="1" source="FbXLROSCPdwHyg9vS8EN-126" target="r5WIAvBTR6VUpxrE6MZp-50" edge="1">
          <mxGeometry relative="1" as="geometry">
            <mxPoint x="1290" y="890" as="sourcePoint" />
            <mxPoint x="1172.8600000000001" y="695" as="targetPoint" />
          </mxGeometry>
        </mxCell>
        <mxCell id="r5WIAvBTR6VUpxrE6MZp-11" value="" style="resizable=0;html=1;whiteSpace=wrap;align=right;verticalAlign=bottom;" parent="r5WIAvBTR6VUpxrE6MZp-9" connectable="0" vertex="1">
          <mxGeometry x="1" relative="1" as="geometry">
            <mxPoint x="-295" y="11" as="offset" />
          </mxGeometry>
        </mxCell>
        <mxCell id="r5WIAvBTR6VUpxrE6MZp-16" value="1" style="edgeLabel;html=1;align=center;verticalAlign=middle;resizable=0;points=[];" parent="r5WIAvBTR6VUpxrE6MZp-9" vertex="1" connectable="0">
          <mxGeometry x="-0.6848" relative="1" as="geometry">
            <mxPoint as="offset" />
          </mxGeometry>
        </mxCell>
        <mxCell id="fYwef7JBW5ezuKU2hQcU-39" value="М" style="edgeLabel;html=1;align=center;verticalAlign=middle;resizable=0;points=[];" parent="r5WIAvBTR6VUpxrE6MZp-9" vertex="1" connectable="0">
          <mxGeometry x="0.7935" y="-2" relative="1" as="geometry">
            <mxPoint as="offset" />
          </mxGeometry>
        </mxCell>
        <mxCell id="r5WIAvBTR6VUpxrE6MZp-19" value="" style="endArrow=none;html=1;rounded=0;entryX=0;entryY=0.5;entryDx=0;entryDy=0;exitX=1;exitY=0.5;exitDx=0;exitDy=0;exitPerimeter=0;" parent="1" source="r5WIAvBTR6VUpxrE6MZp-50" target="r5WIAvBTR6VUpxrE6MZp-27" edge="1">
          <mxGeometry relative="1" as="geometry">
            <mxPoint x="1131.1538461538466" y="328.46153846153857" as="sourcePoint" />
            <mxPoint x="1185" y="310" as="targetPoint" />
          </mxGeometry>
        </mxCell>
        <mxCell id="r5WIAvBTR6VUpxrE6MZp-20" value="" style="endArrow=none;html=1;rounded=0;entryX=0.5;entryY=0;entryDx=0;entryDy=0;exitX=1;exitY=0.75;exitDx=0;exitDy=0;" parent="1" source="r5WIAvBTR6VUpxrE6MZp-50" edge="1">
          <mxGeometry relative="1" as="geometry">
            <mxPoint x="1135" y="340" as="sourcePoint" />
            <mxPoint x="1295" y="350" as="targetPoint" />
          </mxGeometry>
        </mxCell>
        <mxCell id="r5WIAvBTR6VUpxrE6MZp-24" value="" style="endArrow=none;html=1;rounded=0;entryX=0;entryY=1;entryDx=0;entryDy=0;exitX=1;exitY=0.25;exitDx=0;exitDy=0;" parent="1" source="r5WIAvBTR6VUpxrE6MZp-50" target="r5WIAvBTR6VUpxrE6MZp-29" edge="1">
          <mxGeometry relative="1" as="geometry">
            <mxPoint x="1125" y="330" as="sourcePoint" />
            <mxPoint x="1215" y="230" as="targetPoint" />
          </mxGeometry>
        </mxCell>
        <mxCell id="r5WIAvBTR6VUpxrE6MZp-26" value="Код товара" style="ellipse;whiteSpace=wrap;html=1;align=center;" parent="1" vertex="1">
          <mxGeometry x="1285" y="335" width="100" height="40" as="geometry" />
        </mxCell>
        <mxCell id="r5WIAvBTR6VUpxrE6MZp-27" value="Количество товара" style="ellipse;whiteSpace=wrap;html=1;align=center;" parent="1" vertex="1">
          <mxGeometry x="1207.86" y="300" width="130" height="40" as="geometry" />
        </mxCell>
        <mxCell id="r5WIAvBTR6VUpxrE6MZp-29" value="Код поставщика" style="ellipse;whiteSpace=wrap;html=1;align=center;" parent="1" vertex="1">
          <mxGeometry x="1227.86" y="215" width="100" height="40" as="geometry" />
        </mxCell>
        <mxCell id="r5WIAvBTR6VUpxrE6MZp-30" value="Код филиала" style="ellipse;whiteSpace=wrap;html=1;align=center;fontStyle=4;" parent="1" vertex="1">
          <mxGeometry x="1170" y="631.84" width="100" height="40" as="geometry" />
        </mxCell>
        <mxCell id="r5WIAvBTR6VUpxrE6MZp-31" value="Код поставщика" style="ellipse;whiteSpace=wrap;html=1;align=center;fontStyle=4;" parent="1" vertex="1">
          <mxGeometry x="1311.7900000000002" y="448.9" width="100" height="40" as="geometry" />
        </mxCell>
        <mxCell id="r5WIAvBTR6VUpxrE6MZp-32" value="" style="endArrow=none;html=1;rounded=0;entryX=0;entryY=0.5;entryDx=0;entryDy=0;exitX=1;exitY=0;exitDx=0;exitDy=0;" parent="1" source="FbXLROSCPdwHyg9vS8EN-99" target="r5WIAvBTR6VUpxrE6MZp-31" edge="1">
          <mxGeometry relative="1" as="geometry">
            <mxPoint x="1241.7900000000002" y="408.9" as="sourcePoint" />
            <mxPoint x="1421.7900000000002" y="378.9" as="targetPoint" />
          </mxGeometry>
        </mxCell>
        <mxCell id="r5WIAvBTR6VUpxrE6MZp-33" value="" style="endArrow=none;html=1;rounded=0;entryX=0;entryY=0.5;entryDx=0;entryDy=0;exitX=1;exitY=0.5;exitDx=0;exitDy=0;" parent="1" source="FbXLROSCPdwHyg9vS8EN-126" target="r5WIAvBTR6VUpxrE6MZp-30" edge="1">
          <mxGeometry relative="1" as="geometry">
            <mxPoint x="1280" y="406.84000000000003" as="sourcePoint" />
            <mxPoint x="1460" y="376.84000000000003" as="targetPoint" />
          </mxGeometry>
        </mxCell>
        <mxCell id="r5WIAvBTR6VUpxrE6MZp-34" value="" style="endArrow=none;html=1;rounded=0;exitX=0.75;exitY=1;exitDx=0;exitDy=0;entryX=0;entryY=0.5;entryDx=0;entryDy=0;" parent="1" source="r5WIAvBTR6VUpxrE6MZp-50" target="r5WIAvBTR6VUpxrE6MZp-35" edge="1">
          <mxGeometry relative="1" as="geometry">
            <mxPoint x="1139.545454545455" y="353.6363636363635" as="sourcePoint" />
            <mxPoint x="1355.8053390593275" y="380.85786437626916" as="targetPoint" />
          </mxGeometry>
        </mxCell>
        <mxCell id="r5WIAvBTR6VUpxrE6MZp-35" value="Код поставки" style="ellipse;whiteSpace=wrap;html=1;align=center;fontStyle=4;" parent="1" vertex="1">
          <mxGeometry x="1250.45" y="375" width="100" height="40" as="geometry" />
        </mxCell>
        <mxCell id="r5WIAvBTR6VUpxrE6MZp-40" value="Состав поставки" style="rounded=1;arcSize=10;whiteSpace=wrap;html=1;align=center;" parent="1" vertex="1">
          <mxGeometry x="930" y="240" width="105" height="40" as="geometry" />
        </mxCell>
        <mxCell id="r5WIAvBTR6VUpxrE6MZp-41" value="" style="endArrow=none;html=1;rounded=0;entryX=0.5;entryY=0;entryDx=0;entryDy=0;exitX=0.5;exitY=1;exitDx=0;exitDy=0;" parent="1" source="r5WIAvBTR6VUpxrE6MZp-50" target="FbXLROSCPdwHyg9vS8EN-99" edge="1">
          <mxGeometry relative="1" as="geometry">
            <mxPoint x="1090" y="480" as="sourcePoint" />
            <mxPoint x="1080" y="470" as="targetPoint" />
          </mxGeometry>
        </mxCell>
        <mxCell id="r5WIAvBTR6VUpxrE6MZp-42" value="" style="resizable=0;html=1;whiteSpace=wrap;align=left;verticalAlign=bottom;" parent="r5WIAvBTR6VUpxrE6MZp-41" connectable="0" vertex="1">
          <mxGeometry x="-1" relative="1" as="geometry">
            <mxPoint x="-295" y="11" as="offset" />
          </mxGeometry>
        </mxCell>
        <mxCell id="r5WIAvBTR6VUpxrE6MZp-43" value="" style="resizable=0;html=1;whiteSpace=wrap;align=right;verticalAlign=bottom;" parent="r5WIAvBTR6VUpxrE6MZp-41" connectable="0" vertex="1">
          <mxGeometry x="1" relative="1" as="geometry" />
        </mxCell>
        <mxCell id="r5WIAvBTR6VUpxrE6MZp-46" value="М" style="edgeLabel;html=1;align=center;verticalAlign=middle;resizable=0;points=[];" parent="r5WIAvBTR6VUpxrE6MZp-41" vertex="1" connectable="0">
          <mxGeometry x="-0.4437" y="1" relative="1" as="geometry">
            <mxPoint as="offset" />
          </mxGeometry>
        </mxCell>
        <mxCell id="r5WIAvBTR6VUpxrE6MZp-47" value="1" style="edgeLabel;html=1;align=center;verticalAlign=middle;resizable=0;points=[];" parent="r5WIAvBTR6VUpxrE6MZp-41" vertex="1" connectable="0">
          <mxGeometry x="0.488" relative="1" as="geometry">
            <mxPoint as="offset" />
          </mxGeometry>
        </mxCell>
        <mxCell id="r5WIAvBTR6VUpxrE6MZp-49" value="Товар" style="whiteSpace=wrap;html=1;align=center;" parent="1" vertex="1">
          <mxGeometry x="970" y="155" width="100" height="40" as="geometry" />
        </mxCell>
        <mxCell id="r5WIAvBTR6VUpxrE6MZp-50" value="Поставка" style="whiteSpace=wrap;html=1;align=center;" parent="1" vertex="1">
          <mxGeometry x="1015" y="330" width="100" height="40" as="geometry" />
        </mxCell>
        <mxCell id="r5WIAvBTR6VUpxrE6MZp-58" value="Количество товара" style="ellipse;whiteSpace=wrap;html=1;align=center;" parent="1" vertex="1">
          <mxGeometry x="825" y="733.9" width="100" height="40" as="geometry" />
        </mxCell>
        <mxCell id="r5WIAvBTR6VUpxrE6MZp-59" value="" style="endArrow=none;html=1;rounded=0;entryX=0;entryY=0;entryDx=0;entryDy=0;exitX=1;exitY=0.25;exitDx=0;exitDy=0;" parent="1" source="FbXLROSCPdwHyg9vS8EN-140" target="r5WIAvBTR6VUpxrE6MZp-58" edge="1">
          <mxGeometry relative="1" as="geometry">
            <mxPoint x="790" y="743.9" as="sourcePoint" />
            <mxPoint x="815" y="661.4" as="targetPoint" />
          </mxGeometry>
        </mxCell>
        <mxCell id="r5WIAvBTR6VUpxrE6MZp-60" value="Цена" style="ellipse;whiteSpace=wrap;html=1;align=center;" parent="1" vertex="1">
          <mxGeometry x="830" y="633.9" width="100" height="40" as="geometry" />
        </mxCell>
        <mxCell id="r5WIAvBTR6VUpxrE6MZp-61" value="" style="endArrow=none;html=1;rounded=0;entryX=0;entryY=1;entryDx=0;entryDy=0;exitX=0.75;exitY=0;exitDx=0;exitDy=0;" parent="1" source="FbXLROSCPdwHyg9vS8EN-140" target="r5WIAvBTR6VUpxrE6MZp-60" edge="1">
          <mxGeometry relative="1" as="geometry">
            <mxPoint x="770" y="638.9" as="sourcePoint" />
            <mxPoint x="785" y="606.4" as="targetPoint" />
          </mxGeometry>
        </mxCell>
        <mxCell id="-AyYgDJwSz0cT9J-4njr-6" value="Код покупателя" style="ellipse;whiteSpace=wrap;html=1;align=center;" parent="1" vertex="1">
          <mxGeometry x="847" y="678.9" width="100" height="40" as="geometry" />
        </mxCell>
        <mxCell id="-AyYgDJwSz0cT9J-4njr-7" value="" style="endArrow=none;html=1;rounded=0;entryX=0.247;entryY=0.965;entryDx=0;entryDy=0;exitX=1;exitY=0;exitDx=0;exitDy=0;entryPerimeter=0;" parent="1" source="FbXLROSCPdwHyg9vS8EN-140" target="-AyYgDJwSz0cT9J-4njr-6" edge="1">
          <mxGeometry relative="1" as="geometry">
            <mxPoint x="690" y="873.9" as="sourcePoint" />
            <mxPoint x="965" y="1118.9" as="targetPoint" />
          </mxGeometry>
        </mxCell>
        <mxCell id="-AyYgDJwSz0cT9J-4njr-9" value="" style="resizable=0;html=1;whiteSpace=wrap;align=left;verticalAlign=bottom;" parent="1" connectable="0" vertex="1">
          <mxGeometry x="489.5" y="452.79999999999995" as="geometry" />
        </mxCell>
        <mxCell id="-AyYgDJwSz0cT9J-4njr-10" value="Код сотрудника" style="ellipse;whiteSpace=wrap;html=1;align=center;" parent="1" vertex="1">
          <mxGeometry x="717.5" y="733.9" width="100" height="40" as="geometry" />
        </mxCell>
        <mxCell id="-AyYgDJwSz0cT9J-4njr-11" value="" style="endArrow=none;html=1;rounded=0;entryX=0;entryY=0;entryDx=0;entryDy=0;exitX=1;exitY=1;exitDx=0;exitDy=0;" parent="1" source="FbXLROSCPdwHyg9vS8EN-140" target="-AyYgDJwSz0cT9J-4njr-10" edge="1">
          <mxGeometry relative="1" as="geometry">
            <mxPoint x="847" y="893.9" as="sourcePoint" />
            <mxPoint x="1122" y="1138.9" as="targetPoint" />
          </mxGeometry>
        </mxCell>
        <mxCell id="-AyYgDJwSz0cT9J-4njr-13" value="Код производителя" style="ellipse;whiteSpace=wrap;html=1;align=center;" parent="1" vertex="1">
          <mxGeometry x="1160" y="175" width="120" height="40" as="geometry" />
        </mxCell>
        <mxCell id="-AyYgDJwSz0cT9J-4njr-14" value="" style="endArrow=none;html=1;rounded=0;entryX=0;entryY=0.5;entryDx=0;entryDy=0;exitX=1;exitY=0.5;exitDx=0;exitDy=0;" parent="1" source="r5WIAvBTR6VUpxrE6MZp-49" target="-AyYgDJwSz0cT9J-4njr-13" edge="1">
          <mxGeometry relative="1" as="geometry">
            <mxPoint x="1080" y="175" as="sourcePoint" />
            <mxPoint x="1170" y="145" as="targetPoint" />
          </mxGeometry>
        </mxCell>
        <mxCell id="-AyYgDJwSz0cT9J-4njr-15" value="" style="endArrow=none;html=1;rounded=0;exitX=0.336;exitY=1.08;exitDx=0;exitDy=0;entryX=0.717;entryY=-0.071;entryDx=0;entryDy=0;exitPerimeter=0;entryPerimeter=0;" parent="1" source="r5WIAvBTR6VUpxrE6MZp-40" target="-AyYgDJwSz0cT9J-4njr-19" edge="1">
          <mxGeometry relative="1" as="geometry">
            <mxPoint x="627.705" y="390.6399999999999" as="sourcePoint" />
            <mxPoint x="644.4999999999952" y="440" as="targetPoint" />
          </mxGeometry>
        </mxCell>
        <mxCell id="-AyYgDJwSz0cT9J-4njr-19" value="Код поставки" style="ellipse;whiteSpace=wrap;html=1;align=center;" parent="1" vertex="1">
          <mxGeometry x="705" y="330" width="100" height="40" as="geometry" />
        </mxCell>
        <mxCell id="fYwef7JBW5ezuKU2hQcU-1" value="" style="endArrow=none;html=1;rounded=0;exitX=0.75;exitY=1;exitDx=0;exitDy=0;entryX=0;entryY=0.5;entryDx=0;entryDy=0;" parent="1" source="FbXLROSCPdwHyg9vS8EN-70" target="r5WIAvBTR6VUpxrE6MZp-49" edge="1">
          <mxGeometry relative="1" as="geometry">
            <mxPoint x="820" y="275" as="sourcePoint" />
            <mxPoint x="940" y="170" as="targetPoint" />
          </mxGeometry>
        </mxCell>
        <mxCell id="fYwef7JBW5ezuKU2hQcU-2" value="" style="resizable=0;html=1;whiteSpace=wrap;align=left;verticalAlign=bottom;" parent="fYwef7JBW5ezuKU2hQcU-1" connectable="0" vertex="1">
          <mxGeometry x="-1" relative="1" as="geometry" />
        </mxCell>
        <mxCell id="fYwef7JBW5ezuKU2hQcU-3" value="" style="resizable=0;html=1;whiteSpace=wrap;align=right;verticalAlign=bottom;" parent="fYwef7JBW5ezuKU2hQcU-1" connectable="0" vertex="1">
          <mxGeometry x="1" relative="1" as="geometry" />
        </mxCell>
        <mxCell id="fYwef7JBW5ezuKU2hQcU-4" value="1" style="edgeLabel;html=1;align=center;verticalAlign=middle;resizable=0;points=[];" parent="fYwef7JBW5ezuKU2hQcU-1" vertex="1" connectable="0">
          <mxGeometry x="-0.8409" relative="1" as="geometry">
            <mxPoint as="offset" />
          </mxGeometry>
        </mxCell>
        <mxCell id="fYwef7JBW5ezuKU2hQcU-5" value="М" style="edgeLabel;html=1;align=center;verticalAlign=middle;resizable=0;points=[];" parent="fYwef7JBW5ezuKU2hQcU-1" vertex="1" connectable="0">
          <mxGeometry x="0.7985" y="3" relative="1" as="geometry">
            <mxPoint as="offset" />
          </mxGeometry>
        </mxCell>
        <mxCell id="fYwef7JBW5ezuKU2hQcU-6" value="" style="endArrow=none;html=1;rounded=0;entryX=0.5;entryY=1;entryDx=0;entryDy=0;exitX=0.75;exitY=0;exitDx=0;exitDy=0;" parent="1" source="r5WIAvBTR6VUpxrE6MZp-40" target="r5WIAvBTR6VUpxrE6MZp-49" edge="1">
          <mxGeometry relative="1" as="geometry">
            <mxPoint x="704.5" y="350" as="sourcePoint" />
            <mxPoint x="934.5" y="270" as="targetPoint" />
          </mxGeometry>
        </mxCell>
        <mxCell id="fYwef7JBW5ezuKU2hQcU-22" value="М" style="edgeLabel;html=1;align=center;verticalAlign=middle;resizable=0;points=[];" parent="fYwef7JBW5ezuKU2hQcU-6" vertex="1" connectable="0">
          <mxGeometry x="0.6192" y="3" relative="1" as="geometry">
            <mxPoint x="-2" y="32" as="offset" />
          </mxGeometry>
        </mxCell>
        <mxCell id="fYwef7JBW5ezuKU2hQcU-73" value="1" style="edgeLabel;html=1;align=center;verticalAlign=middle;resizable=0;points=[];" parent="fYwef7JBW5ezuKU2hQcU-6" vertex="1" connectable="0">
          <mxGeometry x="0.6201" relative="1" as="geometry">
            <mxPoint as="offset" />
          </mxGeometry>
        </mxCell>
        <mxCell id="fYwef7JBW5ezuKU2hQcU-9" value="" style="endArrow=none;html=1;rounded=0;entryX=0.25;entryY=0;entryDx=0;entryDy=0;exitX=0.658;exitY=0.986;exitDx=0;exitDy=0;exitPerimeter=0;" parent="1" source="r5WIAvBTR6VUpxrE6MZp-40" target="r5WIAvBTR6VUpxrE6MZp-50" edge="1">
          <mxGeometry relative="1" as="geometry">
            <mxPoint x="933.5" y="310" as="sourcePoint" />
            <mxPoint x="924.5" y="390" as="targetPoint" />
          </mxGeometry>
        </mxCell>
        <mxCell id="fYwef7JBW5ezuKU2hQcU-10" value="" style="resizable=0;html=1;whiteSpace=wrap;align=right;verticalAlign=bottom;" parent="fYwef7JBW5ezuKU2hQcU-9" connectable="0" vertex="1">
          <mxGeometry x="1" relative="1" as="geometry" />
        </mxCell>
        <mxCell id="fYwef7JBW5ezuKU2hQcU-11" value="1" style="edgeLabel;html=1;align=center;verticalAlign=middle;resizable=0;points=[];" parent="fYwef7JBW5ezuKU2hQcU-9" vertex="1" connectable="0">
          <mxGeometry x="0.6339" y="1" relative="1" as="geometry">
            <mxPoint as="offset" />
          </mxGeometry>
        </mxCell>
        <mxCell id="fYwef7JBW5ezuKU2hQcU-72" value="М" style="edgeLabel;html=1;align=center;verticalAlign=middle;resizable=0;points=[];" parent="fYwef7JBW5ezuKU2hQcU-9" vertex="1" connectable="0">
          <mxGeometry x="-0.7226" y="1" relative="1" as="geometry">
            <mxPoint as="offset" />
          </mxGeometry>
        </mxCell>
        <mxCell id="fYwef7JBW5ezuKU2hQcU-16" value="Дата поставки" style="ellipse;whiteSpace=wrap;html=1;align=center;" parent="1" vertex="1">
          <mxGeometry x="1115" y="225.04" width="100" height="40" as="geometry" />
        </mxCell>
        <mxCell id="fYwef7JBW5ezuKU2hQcU-17" value="" style="resizable=0;html=1;whiteSpace=wrap;align=right;verticalAlign=bottom;" parent="1" connectable="0" vertex="1">
          <mxGeometry x="1184.4859501308288" y="270.03746631779063" as="geometry" />
        </mxCell>
        <mxCell id="fYwef7JBW5ezuKU2hQcU-19" value="" style="endArrow=none;html=1;rounded=0;exitX=0.5;exitY=0;exitDx=0;exitDy=0;entryX=0.5;entryY=1;entryDx=0;entryDy=0;" parent="1" source="r5WIAvBTR6VUpxrE6MZp-50" target="fYwef7JBW5ezuKU2hQcU-16" edge="1">
          <mxGeometry relative="1" as="geometry">
            <mxPoint x="897" y="300" as="sourcePoint" />
            <mxPoint x="1070" y="280" as="targetPoint" />
            <Array as="points" />
          </mxGeometry>
        </mxCell>
        <mxCell id="fYwef7JBW5ezuKU2hQcU-21" value="" style="endArrow=none;html=1;rounded=0;exitX=1;exitY=0.5;exitDx=0;exitDy=0;entryX=0;entryY=0.5;entryDx=0;entryDy=0;" parent="1" source="FbXLROSCPdwHyg9vS8EN-74" target="r5WIAvBTR6VUpxrE6MZp-40" edge="1">
          <mxGeometry relative="1" as="geometry">
            <mxPoint x="1030" y="360" as="sourcePoint" />
            <mxPoint x="1190" y="360" as="targetPoint" />
          </mxGeometry>
        </mxCell>
        <mxCell id="fYwef7JBW5ezuKU2hQcU-23" value="" style="endArrow=none;html=1;rounded=0;entryX=0.5;entryY=1;entryDx=0;entryDy=0;exitX=0.5;exitY=0;exitDx=0;exitDy=0;" parent="1" source="fYwef7JBW5ezuKU2hQcU-24" target="r5WIAvBTR6VUpxrE6MZp-40" edge="1">
          <mxGeometry relative="1" as="geometry">
            <mxPoint x="907" y="310" as="sourcePoint" />
            <mxPoint x="865.117264019731" y="274.23672865664776" as="targetPoint" />
            <Array as="points" />
          </mxGeometry>
        </mxCell>
        <mxCell id="fYwef7JBW5ezuKU2hQcU-24" value="Остаток поставки" style="ellipse;whiteSpace=wrap;html=1;align=center;" parent="1" vertex="1">
          <mxGeometry x="885" y="350" width="110" height="40" as="geometry" />
        </mxCell>
        <mxCell id="fYwef7JBW5ezuKU2hQcU-26" value="Условия хранения" style="ellipse;whiteSpace=wrap;html=1;align=center;" parent="1" vertex="1">
          <mxGeometry x="1177.86" y="65.00000000000003" width="100" height="40" as="geometry" />
        </mxCell>
        <mxCell id="fYwef7JBW5ezuKU2hQcU-27" value="" style="endArrow=none;html=1;rounded=0;exitX=0;exitY=0.5;exitDx=0;exitDy=0;entryX=1;entryY=0;entryDx=0;entryDy=0;" parent="1" source="fYwef7JBW5ezuKU2hQcU-26" target="r5WIAvBTR6VUpxrE6MZp-49" edge="1">
          <mxGeometry relative="1" as="geometry">
            <mxPoint x="1000" y="280" as="sourcePoint" />
            <mxPoint x="1160" y="280" as="targetPoint" />
          </mxGeometry>
        </mxCell>
        <mxCell id="fYwef7JBW5ezuKU2hQcU-62" value="" style="endArrow=none;html=1;rounded=0;exitX=0.75;exitY=0;exitDx=0;exitDy=0;entryX=0;entryY=0.5;entryDx=0;entryDy=0;" parent="1" source="FbXLROSCPdwHyg9vS8EN-140" target="fYwef7JBW5ezuKU2hQcU-64" edge="1">
          <mxGeometry relative="1" as="geometry">
            <mxPoint x="1366" y="464.9" as="sourcePoint" />
            <mxPoint x="830" y="613.9" as="targetPoint" />
          </mxGeometry>
        </mxCell>
        <mxCell id="fYwef7JBW5ezuKU2hQcU-64" value="Код заказа" style="ellipse;whiteSpace=wrap;html=1;align=center;fontStyle=4;" parent="1" vertex="1">
          <mxGeometry x="835" y="593.9" width="100" height="40" as="geometry" />
        </mxCell>
        <mxCell id="fYwef7JBW5ezuKU2hQcU-66" value="Код сотрудника" style="ellipse;whiteSpace=wrap;html=1;align=center;" parent="1" vertex="1">
          <mxGeometry x="1250" y="255" width="130" height="40" as="geometry" />
        </mxCell>
        <mxCell id="fYwef7JBW5ezuKU2hQcU-67" value="Код филиала" style="ellipse;whiteSpace=wrap;html=1;align=center;" parent="1" vertex="1">
          <mxGeometry x="1155" y="420" width="130" height="40" as="geometry" />
        </mxCell>
        <mxCell id="fYwef7JBW5ezuKU2hQcU-68" value="" style="endArrow=none;html=1;rounded=0;entryX=0;entryY=0;entryDx=0;entryDy=0;exitX=0.75;exitY=1;exitDx=0;exitDy=0;" parent="1" source="r5WIAvBTR6VUpxrE6MZp-50" target="fYwef7JBW5ezuKU2hQcU-67" edge="1">
          <mxGeometry relative="1" as="geometry">
            <mxPoint x="1125" y="350" as="sourcePoint" />
            <mxPoint x="1253" y="259" as="targetPoint" />
          </mxGeometry>
        </mxCell>
        <mxCell id="fYwef7JBW5ezuKU2hQcU-69" value="" style="endArrow=none;html=1;rounded=0;entryX=0;entryY=0.5;entryDx=0;entryDy=0;exitX=1;exitY=0.25;exitDx=0;exitDy=0;" parent="1" source="r5WIAvBTR6VUpxrE6MZp-50" target="fYwef7JBW5ezuKU2hQcU-66" edge="1">
          <mxGeometry relative="1" as="geometry">
            <mxPoint x="1135" y="360" as="sourcePoint" />
            <mxPoint x="1263" y="269" as="targetPoint" />
          </mxGeometry>
        </mxCell>
        <mxCell id="fYwef7JBW5ezuKU2hQcU-74" value="Состав заказа" style="rounded=1;arcSize=10;whiteSpace=wrap;html=1;align=center;" parent="1" vertex="1">
          <mxGeometry x="357.5" y="363.9" width="105" height="40" as="geometry" />
        </mxCell>
        <mxCell id="fYwef7JBW5ezuKU2hQcU-75" value="" style="endArrow=none;html=1;rounded=0;exitX=0.25;exitY=0;exitDx=0;exitDy=0;entryX=1;entryY=1;entryDx=0;entryDy=0;" parent="1" source="FbXLROSCPdwHyg9vS8EN-140" target="fYwef7JBW5ezuKU2hQcU-74" edge="1">
          <mxGeometry relative="1" as="geometry">
            <mxPoint x="900" y="600" as="sourcePoint" />
            <mxPoint x="1060" y="600" as="targetPoint" />
          </mxGeometry>
        </mxCell>
        <mxCell id="fYwef7JBW5ezuKU2hQcU-95" value="1" style="edgeLabel;html=1;align=center;verticalAlign=middle;resizable=0;points=[];" parent="fYwef7JBW5ezuKU2hQcU-75" vertex="1" connectable="0">
          <mxGeometry x="-0.6882" relative="1" as="geometry">
            <mxPoint as="offset" />
          </mxGeometry>
        </mxCell>
        <mxCell id="fYwef7JBW5ezuKU2hQcU-96" value="М" style="edgeLabel;html=1;align=center;verticalAlign=middle;resizable=0;points=[];" parent="fYwef7JBW5ezuKU2hQcU-75" vertex="1" connectable="0">
          <mxGeometry x="0.5894" relative="1" as="geometry">
            <mxPoint as="offset" />
          </mxGeometry>
        </mxCell>
        <mxCell id="fYwef7JBW5ezuKU2hQcU-76" value="Количество в поставке" style="ellipse;whiteSpace=wrap;html=1;align=center;" parent="1" vertex="1">
          <mxGeometry x="200" y="373.9" width="100" height="40" as="geometry" />
        </mxCell>
        <mxCell id="fYwef7JBW5ezuKU2hQcU-77" value="" style="endArrow=none;html=1;rounded=0;exitX=0;exitY=0.25;exitDx=0;exitDy=0;entryX=1;entryY=0.5;entryDx=0;entryDy=0;" parent="1" source="fYwef7JBW5ezuKU2hQcU-74" target="fYwef7JBW5ezuKU2hQcU-76" edge="1">
          <mxGeometry relative="1" as="geometry">
            <mxPoint x="345" y="428.9" as="sourcePoint" />
            <mxPoint x="-25.5" y="558.9" as="targetPoint" />
          </mxGeometry>
        </mxCell>
        <mxCell id="fYwef7JBW5ezuKU2hQcU-81" value="Стоимость единицы" style="ellipse;whiteSpace=wrap;html=1;align=center;" parent="1" vertex="1">
          <mxGeometry x="222.5" y="423.9" width="110" height="45" as="geometry" />
        </mxCell>
        <mxCell id="fYwef7JBW5ezuKU2hQcU-83" value="" style="endArrow=none;html=1;rounded=0;exitX=1;exitY=0.5;exitDx=0;exitDy=0;entryX=0.095;entryY=1.112;entryDx=0;entryDy=0;entryPerimeter=0;" parent="1" source="fYwef7JBW5ezuKU2hQcU-81" target="fYwef7JBW5ezuKU2hQcU-74" edge="1">
          <mxGeometry relative="1" as="geometry">
            <mxPoint x="612.5" y="618.9" as="sourcePoint" />
            <mxPoint x="512.5" y="518.9" as="targetPoint" />
          </mxGeometry>
        </mxCell>
        <mxCell id="fYwef7JBW5ezuKU2hQcU-86" value="" style="endArrow=none;html=1;rounded=0;exitX=1;exitY=0;exitDx=0;exitDy=0;entryX=0.381;entryY=0.988;entryDx=0;entryDy=0;entryPerimeter=0;" parent="1" source="fYwef7JBW5ezuKU2hQcU-87" target="r5WIAvBTR6VUpxrE6MZp-40" edge="1">
          <mxGeometry relative="1" as="geometry">
            <mxPoint x="885.3553390593274" y="355.85786437626894" as="sourcePoint" />
            <mxPoint x="966" y="290" as="targetPoint" />
          </mxGeometry>
        </mxCell>
        <mxCell id="fYwef7JBW5ezuKU2hQcU-87" value="Код состава поставки" style="ellipse;whiteSpace=wrap;html=1;align=center;fontStyle=4;" parent="1" vertex="1">
          <mxGeometry x="790" y="350" width="100" height="40" as="geometry" />
        </mxCell>
        <mxCell id="fYwef7JBW5ezuKU2hQcU-88" value="Код состава заказа" style="ellipse;whiteSpace=wrap;html=1;align=center;fontStyle=4;" parent="1" vertex="1">
          <mxGeometry x="329.5" y="453.9" width="100" height="40" as="geometry" />
        </mxCell>
        <mxCell id="fYwef7JBW5ezuKU2hQcU-89" value="" style="endArrow=none;html=1;rounded=0;exitX=0.5;exitY=0;exitDx=0;exitDy=0;entryX=0.5;entryY=1;entryDx=0;entryDy=0;" parent="1" source="fYwef7JBW5ezuKU2hQcU-88" target="fYwef7JBW5ezuKU2hQcU-74" edge="1">
          <mxGeometry relative="1" as="geometry">
            <mxPoint x="702.5" y="243.89999999999998" as="sourcePoint" />
            <mxPoint x="862.5" y="243.89999999999998" as="targetPoint" />
          </mxGeometry>
        </mxCell>
        <mxCell id="fYwef7JBW5ezuKU2hQcU-91" value="" style="resizable=0;html=1;whiteSpace=wrap;align=left;verticalAlign=bottom;" parent="1" connectable="0" vertex="1">
          <mxGeometry x="589.5" y="412.79999999999995" as="geometry" />
        </mxCell>
        <mxCell id="fYwef7JBW5ezuKU2hQcU-92" value="Примечание" style="ellipse;whiteSpace=wrap;html=1;align=center;" parent="1" vertex="1">
          <mxGeometry x="510" y="432.79999999999995" width="100" height="40" as="geometry" />
        </mxCell>
        <mxCell id="fYwef7JBW5ezuKU2hQcU-93" value="" style="endArrow=none;html=1;rounded=0;exitX=0.5;exitY=0;exitDx=0;exitDy=0;entryX=1;entryY=0.75;entryDx=0;entryDy=0;" parent="1" source="fYwef7JBW5ezuKU2hQcU-92" target="fYwef7JBW5ezuKU2hQcU-74" edge="1">
          <mxGeometry relative="1" as="geometry">
            <mxPoint x="802.5" y="203.89999999999998" as="sourcePoint" />
            <mxPoint x="552.5" y="343.9" as="targetPoint" />
          </mxGeometry>
        </mxCell>
        <mxCell id="fYwef7JBW5ezuKU2hQcU-97" value="" style="endArrow=none;html=1;rounded=0;entryX=0;entryY=0.75;entryDx=0;entryDy=0;exitX=1;exitY=0.25;exitDx=0;exitDy=0;" parent="1" source="fYwef7JBW5ezuKU2hQcU-74" target="r5WIAvBTR6VUpxrE6MZp-40" edge="1">
          <mxGeometry relative="1" as="geometry">
            <mxPoint x="800" y="480" as="sourcePoint" />
            <mxPoint x="960" y="480" as="targetPoint" />
          </mxGeometry>
        </mxCell>
        <mxCell id="fYwef7JBW5ezuKU2hQcU-98" value="М" style="edgeLabel;html=1;align=center;verticalAlign=middle;resizable=0;points=[];" parent="fYwef7JBW5ezuKU2hQcU-97" vertex="1" connectable="0">
          <mxGeometry x="-0.8789" y="1" relative="1" as="geometry">
            <mxPoint as="offset" />
          </mxGeometry>
        </mxCell>
        <mxCell id="fYwef7JBW5ezuKU2hQcU-99" value="1" style="edgeLabel;html=1;align=center;verticalAlign=middle;resizable=0;points=[];" parent="fYwef7JBW5ezuKU2hQcU-97" vertex="1" connectable="0">
          <mxGeometry x="0.8495" y="-1" relative="1" as="geometry">
            <mxPoint as="offset" />
          </mxGeometry>
        </mxCell>
        <mxCell id="fYwef7JBW5ezuKU2hQcU-100" value="Код состава поставки&lt;br&gt;" style="ellipse;whiteSpace=wrap;html=1;align=center;" parent="1" vertex="1">
          <mxGeometry x="410" y="270.03999999999996" width="100" height="40" as="geometry" />
        </mxCell>
        <mxCell id="fYwef7JBW5ezuKU2hQcU-101" value="" style="endArrow=none;html=1;rounded=0;exitX=0.75;exitY=0;exitDx=0;exitDy=0;entryX=0.5;entryY=1;entryDx=0;entryDy=0;" parent="1" source="fYwef7JBW5ezuKU2hQcU-74" target="fYwef7JBW5ezuKU2hQcU-100" edge="1">
          <mxGeometry relative="1" as="geometry">
            <mxPoint x="368" y="384" as="sourcePoint" />
            <mxPoint x="-15.5" y="568.9" as="targetPoint" />
          </mxGeometry>
        </mxCell>
        <mxCell id="fYwef7JBW5ezuKU2hQcU-102" value="Код заказа&lt;br&gt;" style="ellipse;whiteSpace=wrap;html=1;align=center;" parent="1" vertex="1">
          <mxGeometry x="222.5" y="310" width="100" height="40" as="geometry" />
        </mxCell>
        <mxCell id="fYwef7JBW5ezuKU2hQcU-103" value="" style="endArrow=none;html=1;rounded=0;exitX=0;exitY=0;exitDx=0;exitDy=0;entryX=1;entryY=0.5;entryDx=0;entryDy=0;" parent="1" source="fYwef7JBW5ezuKU2hQcU-74" target="fYwef7JBW5ezuKU2hQcU-102" edge="1">
          <mxGeometry relative="1" as="geometry">
            <mxPoint x="380.5" y="310.1" as="sourcePoint" />
            <mxPoint x="-3" y="495" as="targetPoint" />
            <Array as="points" />
          </mxGeometry>
        </mxCell>
        <mxCell id="fYwef7JBW5ezuKU2hQcU-105" value="Статус заказа" style="ellipse;whiteSpace=wrap;html=1;align=center;" parent="1" vertex="1">
          <mxGeometry x="647" y="583.9" width="100" height="40" as="geometry" />
        </mxCell>
        <mxCell id="fYwef7JBW5ezuKU2hQcU-106" value="" style="endArrow=none;html=1;rounded=0;exitX=0.38;exitY=0.026;exitDx=0;exitDy=0;entryX=0.5;entryY=1;entryDx=0;entryDy=0;exitPerimeter=0;" parent="1" source="FbXLROSCPdwHyg9vS8EN-140" target="fYwef7JBW5ezuKU2hQcU-105" edge="1">
          <mxGeometry relative="1" as="geometry">
            <mxPoint x="754" y="584" as="sourcePoint" />
            <mxPoint x="370.5" y="768.9" as="targetPoint" />
          </mxGeometry>
        </mxCell>
        <mxCell id="fYwef7JBW5ezuKU2hQcU-107" value="Адрес&lt;br&gt;" style="ellipse;whiteSpace=wrap;html=1;align=center;" parent="1" vertex="1">
          <mxGeometry x="575" y="543.9" width="100" height="40" as="geometry" />
        </mxCell>
        <mxCell id="fYwef7JBW5ezuKU2hQcU-108" value="" style="endArrow=none;html=1;rounded=0;exitX=0.25;exitY=0;exitDx=0;exitDy=0;entryX=0.5;entryY=1;entryDx=0;entryDy=0;" parent="1" source="FbXLROSCPdwHyg9vS8EN-140" target="fYwef7JBW5ezuKU2hQcU-107" edge="1">
          <mxGeometry relative="1" as="geometry">
            <mxPoint x="725" y="510.1" as="sourcePoint" />
            <mxPoint x="341.5" y="695" as="targetPoint" />
          </mxGeometry>
        </mxCell>
        <mxCell id="fYwef7JBW5ezuKU2hQcU-111" value="" style="endArrow=none;html=1;rounded=0;entryX=0;entryY=0.5;entryDx=0;entryDy=0;exitX=1;exitY=0.5;exitDx=0;exitDy=0;" parent="1" source="fYwef7JBW5ezuKU2hQcU-112" target="r5WIAvBTR6VUpxrE6MZp-40" edge="1">
          <mxGeometry relative="1" as="geometry">
            <mxPoint x="462.5" y="388.9" as="sourcePoint" />
            <mxPoint x="642.5" y="378.9" as="targetPoint" />
          </mxGeometry>
        </mxCell>
        <mxCell id="fYwef7JBW5ezuKU2hQcU-112" value="Код товара" style="ellipse;whiteSpace=wrap;html=1;align=center;" parent="1" vertex="1">
          <mxGeometry x="625" y="270.03999999999996" width="100" height="40" as="geometry" />
        </mxCell>
      </root>
    </mxGraphModel>
  </diagram>
</mxfile>
